<svg width="165" height="44" viewBox="0 0 165 44" fill="none" xmlns="http://www.w3.org/2000/svg">
<g clip-path="url(#clip0_1_1935)">
<path d="M12.5327 7.76315C5.61103 7.76315 0 13.3554 0 20.254V28.3821C0 31.0285 2.16599 33.0159 4.80342 32.7046C6.15309 32.5451 7.31061 31.7612 7.97788 30.651C8.04667 30.5367 8.12418 30.4275 8.2081 30.3237L8.20902 30.3223L8.42319 30.0577C10.5337 27.4519 14.519 27.4538 16.6276 30.0609L16.8358 30.3187C16.845 30.3301 16.8546 30.3415 16.8638 30.353C16.9445 30.4503 17.0174 30.5536 17.083 30.6619C17.8342 31.9038 19.2008 32.7343 20.7619 32.7343C23.06 32.7343 24.9362 30.9348 25.0494 28.6723C25.0595 28.6001 25.065 28.5279 25.065 28.4557V20.2535C25.065 13.355 19.454 7.7627 12.5323 7.7627L12.5327 7.76315ZM18.8032 24.9426C18.2011 24.9426 17.6393 24.773 17.1619 24.4796L12.5332 21.8199L7.90405 24.4801C7.42664 24.773 6.86485 24.9426 6.2627 24.9426C4.53239 24.9426 3.12952 23.5444 3.12952 21.8199C3.12952 21.0808 3.38771 20.4021 3.81834 19.8673V19.8636L10.1145 12.0235C10.115 12.0231 10.1154 12.0221 10.1159 12.0217C10.6896 11.3288 11.5573 10.8872 12.5291 10.8859L12.5337 10.8763L12.5552 10.8863C13.5467 10.8932 14.4277 11.3585 14.9973 12.0806L21.2146 19.8252C21.6658 20.3664 21.9373 21.0616 21.9373 21.8199C21.9373 23.5444 20.5345 24.9426 18.8042 24.9426H18.8032Z" fill="#0049AF"/>
<path d="M12.5325 36.2376C14.2629 36.2376 15.6657 34.8395 15.6657 33.1149C15.6657 31.3903 14.2629 29.9922 12.5325 29.9922C10.8021 29.9922 9.39929 31.3903 9.39929 33.1149C9.39929 34.8395 10.8021 36.2376 12.5325 36.2376Z" fill="#0049AF"/>
<path d="M44.016 21.067C44.016 22.1416 43.855 23.0859 43.5345 23.9009C43.2134 24.7158 42.7741 25.3978 42.2173 25.9472C41.6601 26.4966 40.997 26.9102 40.2275 27.1877C39.4584 27.4651 38.6315 27.604 37.7473 27.604C36.8631 27.604 36.0757 27.4651 35.3126 27.1877C34.5495 26.9102 33.8836 26.4966 33.314 25.9472C32.7444 25.3978 32.2968 24.7158 31.9698 23.9009C31.6428 23.0859 31.4791 22.1416 31.4791 21.067C31.4791 19.9925 31.6484 19.0477 31.9877 18.2332C32.3266 17.4182 32.7839 16.7331 33.3594 16.1777C33.9345 15.6224 34.6008 15.206 35.358 14.9281C36.1152 14.6507 36.9113 14.5117 37.7473 14.5117C38.5834 14.5117 39.4189 14.6507 40.1821 14.9281C40.9452 15.206 41.6111 15.6224 42.1807 16.1777C42.7498 16.7331 43.1978 17.4182 43.5253 18.2332C43.8523 19.0481 44.016 19.9929 44.016 21.067ZM34.4046 21.067C34.4046 21.6827 34.4802 22.238 34.6316 22.733C34.7829 23.2281 35.0012 23.6536 35.2855 24.0096C35.5699 24.3657 35.9184 24.6404 36.3302 24.8333C36.7421 25.0266 37.2144 25.1231 37.7473 25.1231C38.2802 25.1231 38.7375 25.0266 39.1557 24.8333C39.5735 24.6404 39.9248 24.3657 40.2096 24.0096C40.4939 23.6536 40.7117 23.2281 40.8635 22.733C41.0149 22.238 41.0906 21.6827 41.0906 21.067C41.0906 20.4514 41.0149 19.8928 40.8635 19.3919C40.7117 18.8909 40.4939 18.4626 40.2096 18.1061C39.9248 17.7501 39.5735 17.4754 39.1557 17.282C38.7379 17.0891 38.2683 16.9922 37.7473 16.9922C37.2264 16.9922 36.7421 17.0919 36.3302 17.2912C35.9184 17.4904 35.5703 17.7683 35.2855 18.1244C35.0012 18.4805 34.7829 18.9092 34.6316 19.4101C34.4802 19.9111 34.4046 20.4637 34.4046 21.067Z" fill="#0049AF"/>
<path d="M55.0804 22.5882C55.0804 23.3245 54.9896 23.9946 54.808 24.5984C54.6264 25.2021 54.3599 25.7209 54.0086 26.1556C53.6569 26.5903 53.2212 26.9285 52.7007 27.1698C52.1797 27.4112 51.5803 27.5318 50.902 27.5318C50.5264 27.5318 50.1751 27.4957 49.8482 27.423C49.5212 27.3508 49.2061 27.248 48.9034 27.1154V30.7007H46.1963V18.1514C46.4384 18.0792 46.7173 18.0097 47.0323 17.9429C47.3469 17.8767 47.6771 17.8191 48.0225 17.7711C48.3678 17.7231 48.7191 17.6838 49.0763 17.6532C49.4336 17.623 49.7757 17.6079 50.1027 17.6079C50.8901 17.6079 51.5927 17.7258 52.2104 17.9612C52.8282 18.1966 53.3487 18.5289 53.7729 18.9572C54.1966 19.3859 54.5209 19.9079 54.7451 20.5236C54.9689 21.1392 55.0813 21.8276 55.0813 22.5882H55.0804ZM52.3187 22.6604C52.3187 21.8276 52.1306 21.1607 51.7555 20.6593C51.3799 20.1584 50.8227 19.9079 50.0839 19.9079C49.8413 19.9079 49.6175 19.917 49.4116 19.9349C49.2057 19.9527 49.036 19.9742 48.903 19.9984V24.8694C49.0727 24.9782 49.2937 25.0687 49.5666 25.1409C49.839 25.2131 50.1146 25.2497 50.393 25.2497C51.6766 25.2497 52.3187 24.3867 52.3187 22.6599V22.6604Z" fill="#0049AF"/>
<path d="M66.1092 22.5698C66.1092 23.3185 66.0005 24.0037 65.7822 24.6253C65.5644 25.2474 65.2493 25.7785 64.8375 26.2186C64.4252 26.6593 63.9317 27.0002 63.3566 27.2416C62.7811 27.4829 62.1363 27.6036 61.4218 27.6036C60.7073 27.6036 60.0799 27.4829 59.5048 27.2416C58.9293 27.0002 58.4358 26.6593 58.024 26.2186C57.6117 25.778 57.2911 25.2469 57.0609 24.6253C56.8307 24.0037 56.7156 23.3185 56.7156 22.5698C56.7156 21.8212 56.8339 21.1392 57.0701 20.5235C57.3063 19.9079 57.6332 19.3827 58.0515 18.948C58.4693 18.5133 58.9655 18.1756 59.541 17.9338C60.1161 17.6924 60.743 17.5718 61.4218 17.5718C62.1005 17.5718 62.7449 17.6929 63.3204 17.9338C63.8959 18.1756 64.3894 18.5133 64.8012 18.948C65.2131 19.3827 65.5336 19.9079 65.7643 20.5235C65.9941 21.1392 66.1096 21.8216 66.1096 22.5698H66.1092ZM63.347 22.5698C63.347 21.7371 63.1805 21.0821 62.8471 20.6054C62.5142 20.1286 62.0386 19.89 61.4209 19.89C60.8031 19.89 60.3243 20.1286 59.9854 20.6054C59.6461 21.0825 59.4768 21.7371 59.4768 22.5698C59.4768 23.4026 59.6461 24.064 59.9854 24.5526C60.3243 25.0417 60.8031 25.2858 61.4209 25.2858C62.0386 25.2858 62.5137 25.0412 62.8471 24.5526C63.1801 24.0636 63.347 23.4026 63.347 22.5698Z" fill="#0049AF"/>
<path d="M73.9579 20.2158C73.7153 20.1554 73.4309 20.0919 73.1039 20.0256C72.7769 19.9594 72.4257 19.926 72.0501 19.926C71.8804 19.926 71.6777 19.9411 71.4415 19.9712C71.2053 20.0014 71.0265 20.0348 70.9054 20.0709V27.3506H68.1982V18.3326C68.6825 18.1635 69.2549 18.004 69.9153 17.8527C70.5752 17.7019 71.3113 17.6265 72.1225 17.6265C72.2679 17.6265 72.4435 17.6356 72.6495 17.6534C72.8554 17.6717 73.0613 17.6959 73.2672 17.7256C73.4731 17.7558 73.679 17.7924 73.8849 17.8344C74.0909 17.8769 74.2665 17.9281 74.4119 17.9885L73.9579 20.2158Z" fill="#0049AF"/>
<path d="M75.7749 15.4532L78.482 15.0186V17.8254H81.7345V20.071H78.482V23.4213C78.482 23.989 78.582 24.4415 78.782 24.7793C78.9819 25.1175 79.3846 25.2862 79.9899 25.2862C80.2807 25.2862 80.5806 25.2592 80.8893 25.2048C81.1984 25.1504 81.4799 25.075 81.7345 24.9786L82.116 27.0793C81.789 27.2123 81.4254 27.327 81.0259 27.4235C80.626 27.5199 80.1358 27.5683 79.5543 27.5683C78.8155 27.5683 78.2037 27.4687 77.7194 27.2694C77.2346 27.0701 76.8471 26.7927 76.5564 26.4362C76.2656 26.0801 76.0624 25.6486 75.9478 25.1413C75.8327 24.6344 75.7754 24.0727 75.7754 23.457V15.4532H75.7749Z" fill="#0049AF"/>
<path d="M92.0914 27.0251C91.631 27.1582 91.0376 27.2816 90.3107 27.3963C89.5843 27.511 88.8211 27.5681 88.0213 27.5681C87.2215 27.5681 86.5345 27.4594 85.9957 27.2423C85.4568 27.0251 85.0294 26.7203 84.7148 26.3277C84.3997 25.9355 84.1755 25.4674 84.0425 24.924C83.909 24.3805 83.8425 23.7831 83.8425 23.1314V17.8257H86.5497V22.8055C86.5497 23.6748 86.6648 24.3024 86.895 24.6886C87.1252 25.0748 87.5549 25.2682 88.1851 25.2682C88.3786 25.2682 88.5845 25.259 88.8028 25.2412C89.0206 25.2229 89.2146 25.2019 89.3843 25.1777V17.8257H92.0914V27.0247V27.0251Z" fill="#0049AF"/>
<path d="M94.6349 18.1514C95.0953 18.0188 95.6888 17.895 96.4157 17.7802C97.1421 17.6655 97.9052 17.6079 98.7045 17.6079C99.5039 17.6079 100.191 17.714 100.731 17.9247C101.27 18.1363 101.696 18.4348 102.012 18.821C102.326 19.2077 102.55 19.6661 102.684 20.1972C102.817 20.7288 102.884 21.3198 102.884 21.972V27.3504H100.177V22.2984C100.177 21.429 100.062 20.8133 99.8313 20.4513C99.6011 20.0893 99.171 19.9079 98.5413 19.9079C98.3473 19.9079 98.1418 19.917 97.9235 19.9349C97.7057 19.9527 97.5117 19.9742 97.342 19.9984V27.3504H94.6349V18.1514Z" fill="#0049AF"/>
<path d="M108.298 15.0733C108.298 15.5683 108.137 15.9578 107.816 16.2411C107.495 16.525 107.117 16.6667 106.681 16.6667C106.244 16.6667 105.866 16.525 105.545 16.2411C105.224 15.9578 105.064 15.5683 105.064 15.0733C105.064 14.5783 105.224 14.1894 105.545 13.9055C105.866 13.6221 106.244 13.48 106.681 13.48C107.117 13.48 107.495 13.6221 107.816 13.9055C108.137 14.1894 108.298 14.5788 108.298 15.0733ZM108.044 27.3512H105.336V17.8263H108.044V27.3512Z" fill="#0049AF"/>
<path d="M119.017 27.0429C118.775 27.1152 118.496 27.1851 118.182 27.2514C117.866 27.3176 117.537 27.3752 117.191 27.4232C116.846 27.4712 116.495 27.5105 116.138 27.5412C115.78 27.5713 115.438 27.5864 115.111 27.5864C114.323 27.5864 113.621 27.4717 113.003 27.2422C112.386 27.0128 111.865 26.6841 111.441 26.2554C111.017 25.8271 110.693 25.3079 110.469 24.6982C110.244 24.0889 110.133 23.4033 110.133 22.6432C110.133 21.8831 110.229 21.1737 110.423 20.5516C110.617 19.93 110.896 19.4016 111.259 18.967C111.623 18.5323 112.067 18.2005 112.594 17.971C113.121 17.7416 113.723 17.6268 114.402 17.6268C114.777 17.6268 115.113 17.6629 115.411 17.7356C115.707 17.8078 116.007 17.9107 116.31 18.0432V13.7335L119.017 13.2988V27.0429ZM112.894 22.5161C112.894 23.3489 113.081 24.019 113.457 24.5263C113.832 25.0332 114.39 25.2869 115.129 25.2869C115.371 25.2869 115.595 25.2777 115.801 25.2599C116.007 25.2421 116.177 25.2211 116.31 25.1964V20.2888C116.14 20.18 115.919 20.0895 115.646 20.0173C115.374 19.9446 115.098 19.9085 114.82 19.9085C113.536 19.9085 112.894 20.7779 112.894 22.5161Z" fill="#0049AF"/>
<path d="M124.994 17.5723C125.793 17.5723 126.46 17.6628 126.993 17.8438C127.526 18.0248 127.953 18.2844 128.274 18.6226C128.594 18.9608 128.822 19.3713 128.955 19.854C129.088 20.3371 129.155 20.8741 129.155 21.4656V27.0793C128.767 27.1639 128.228 27.2635 127.538 27.3783C126.847 27.493 126.012 27.5501 125.031 27.5501C124.413 27.5501 123.853 27.4957 123.35 27.3874C122.848 27.2786 122.415 27.1008 122.051 26.8531C121.688 26.6058 121.409 26.2827 121.216 25.8846C121.022 25.486 120.925 24.9974 120.925 24.4178C120.925 23.8382 121.037 23.3917 121.261 23.0055C121.485 22.6192 121.785 22.3116 122.16 22.0822C122.536 21.8527 122.966 21.6868 123.45 21.584C123.935 21.4816 124.438 21.4299 124.958 21.4299C125.31 21.4299 125.622 21.4455 125.894 21.4752C126.166 21.5054 126.387 21.5447 126.557 21.5931V21.3394C126.557 20.8805 126.418 20.5126 126.139 20.2347C125.86 19.9573 125.376 19.8183 124.686 19.8183C124.226 19.8183 123.771 19.8517 123.323 19.918C122.875 19.9842 122.487 20.0779 122.16 20.1986L121.815 18.0257C121.972 17.9777 122.17 17.926 122.406 17.8716C122.642 17.8173 122.899 17.7693 123.178 17.7268C123.456 17.6847 123.75 17.6486 124.059 17.618C124.368 17.5878 124.679 17.5727 124.994 17.5727V17.5723ZM125.212 25.4672C125.478 25.4672 125.733 25.4613 125.975 25.449C126.217 25.4371 126.411 25.4188 126.557 25.3946V23.3483C126.448 23.3245 126.284 23.3003 126.066 23.2761C125.849 23.2518 125.648 23.2399 125.466 23.2399C125.212 23.2399 124.973 23.2555 124.749 23.2852C124.525 23.3154 124.328 23.3729 124.159 23.4571C123.989 23.5416 123.855 23.6563 123.759 23.8012C123.662 23.9461 123.614 24.1271 123.614 24.3447C123.614 24.7675 123.756 25.06 124.041 25.2227C124.325 25.3854 124.716 25.4672 125.212 25.4672H125.212Z" fill="#0049AF"/>
<path d="M140.038 27.0429C139.796 27.1152 139.517 27.1851 139.203 27.2514C138.888 27.3176 138.558 27.3752 138.213 27.4232C137.867 27.4712 137.516 27.5105 137.159 27.5412C136.801 27.5713 136.459 27.5864 136.132 27.5864C135.344 27.5864 134.642 27.4717 134.025 27.2422C133.407 27.0128 132.886 26.6841 132.462 26.2554C132.038 25.8271 131.714 25.3079 131.49 24.6982C131.266 24.0889 131.154 23.4033 131.154 22.6432C131.154 21.8831 131.25 21.1737 131.444 20.5516C131.638 19.93 131.917 19.4016 132.28 18.967C132.644 18.5323 133.089 18.2005 133.615 17.971C134.142 17.7416 134.745 17.6268 135.423 17.6268C135.798 17.6268 136.135 17.6629 136.432 17.7356C136.728 17.8078 137.028 17.9107 137.331 18.0432V13.7335L140.038 13.2988V27.0429ZM133.915 22.5161C133.915 23.3489 134.103 24.019 134.478 24.5263C134.853 25.0332 135.411 25.2869 136.15 25.2869C136.392 25.2869 136.616 25.2777 136.822 25.2599C137.028 25.2421 137.198 25.2211 137.331 25.1964V20.2888C137.161 20.18 136.94 20.0895 136.667 20.0173C136.395 19.9446 136.119 19.9085 135.841 19.9085C134.557 19.9085 133.915 20.7779 133.915 22.5161Z" fill="#0049AF"/>
<path d="M142.128 22.6603C142.128 21.8157 142.258 21.0757 142.519 20.4422C142.779 19.8082 143.121 19.2803 143.545 18.8575C143.969 18.4352 144.456 18.1152 145.007 17.8977C145.558 17.6801 146.125 17.5718 146.706 17.5718C148.063 17.5718 149.134 17.9854 149.922 18.8123C150.71 19.6391 151.103 20.8558 151.103 22.4611C151.103 22.6183 151.097 22.7902 151.085 22.9771C151.072 23.1645 151.061 23.3304 151.049 23.4748H144.907C144.968 24.0302 145.228 24.4708 145.689 24.7967C146.149 25.1226 146.767 25.2858 147.542 25.2858C148.038 25.2858 148.526 25.2405 149.005 25.15C149.483 25.0595 149.874 24.948 150.176 24.815L150.54 27.0062C150.394 27.0784 150.201 27.1511 149.958 27.2233C149.715 27.2955 149.446 27.359 149.15 27.4134C148.853 27.4678 148.535 27.5131 148.196 27.5492C147.856 27.5853 147.517 27.6036 147.178 27.6036C146.318 27.6036 145.57 27.477 144.934 27.2233C144.298 26.9696 143.771 26.6227 143.353 26.1821C142.935 25.7415 142.626 25.2195 142.426 24.6157C142.226 24.0124 142.126 23.3601 142.126 22.6599L142.128 22.6603ZM148.487 21.6283C148.475 21.3988 148.435 21.1758 148.369 20.9582C148.302 20.7411 148.2 20.5478 148.06 20.3786C147.921 20.2095 147.745 20.0706 147.533 19.9623C147.321 19.8535 147.058 19.7995 146.743 19.7995C146.428 19.7995 146.18 19.8512 145.962 19.9536C145.743 20.0564 145.562 20.1922 145.416 20.3613C145.271 20.5304 145.159 20.7265 145.08 20.95C145.001 21.1735 144.944 21.3997 144.908 21.6292H148.487V21.6283Z" fill="#0049AF"/>
<path d="M155.936 25.4129C156.433 25.4129 156.783 25.3649 156.99 25.268C157.196 25.1715 157.298 24.9846 157.298 24.7067C157.298 24.4896 157.165 24.2994 156.899 24.1363C156.633 23.9735 156.227 23.7893 155.681 23.5841C155.257 23.4273 154.873 23.2642 154.528 23.0951C154.183 22.9259 153.889 22.7239 153.647 22.4885C153.404 22.2531 153.216 21.9725 153.083 21.6466C152.95 21.3207 152.883 20.9285 152.883 20.4696C152.883 19.5765 153.216 18.8703 153.883 18.3511C154.549 17.8319 155.464 17.5723 156.626 17.5723C157.208 17.5723 157.764 17.6239 158.298 17.7263C158.831 17.8291 159.254 17.9407 159.569 18.0613L159.097 20.162C158.782 20.0532 158.44 19.9568 158.071 19.8722C157.701 19.7877 157.286 19.7456 156.826 19.7456C155.978 19.7456 155.554 19.981 155.554 20.4518C155.554 20.5606 155.573 20.6575 155.609 20.7416C155.645 20.8262 155.718 20.9075 155.827 20.9861C155.935 21.0647 156.084 21.1498 156.272 21.2407C156.46 21.3321 156.699 21.4327 156.99 21.5419C157.583 21.7613 158.073 21.9775 158.461 22.1901C158.849 22.403 159.155 22.633 159.379 22.8798C159.603 23.1266 159.761 23.4008 159.851 23.702C159.942 24.0032 159.988 24.3525 159.988 24.7496C159.988 25.6894 159.634 26.4001 158.925 26.8819C158.216 27.3636 157.214 27.6045 155.918 27.6045C155.07 27.6045 154.364 27.5318 153.801 27.3874C153.238 27.2425 152.847 27.1218 152.629 27.0254L153.083 24.8342C153.544 25.0152 154.016 25.1574 154.501 25.2597C154.985 25.3626 155.463 25.4138 155.936 25.4138V25.4129Z" fill="#0049AF"/>
<path d="M164.657 25.9204C164.657 26.4639 164.484 26.8775 164.14 27.1609C163.794 27.4443 163.403 27.5864 162.968 27.5864C162.532 27.5864 162.141 27.4443 161.796 27.1609C161.451 26.8775 161.278 26.4639 161.278 25.9204C161.278 25.377 161.451 24.9638 161.796 24.6799C162.141 24.3965 162.532 24.2544 162.968 24.2544C163.403 24.2544 163.795 24.3965 164.14 24.6799C164.485 24.9638 164.657 25.377 164.657 25.9204Z" fill="#0049AF"/>
</g>
<defs>
<clipPath id="clip0_1_1935">
<rect width="164.658" height="44" fill="white"/>
</clipPath>
</defs>
</svg>
