<svg width="38" height="48" viewBox="0 0 38 48" fill="none" xmlns="http://www.w3.org/2000/svg">
<path d="M18.4228 47.9999C29.9222 47.9999 34.9158 43.5808 34.9158 34.4608C34.9158 25.3937 29.9222 21.0098 18.4228 21.0098C6.88815 21.0098 1.94727 25.3585 1.94727 34.4608C1.94727 43.616 6.88815 47.9999 18.4228 47.9999ZM18.4228 39.7602C12.7082 39.7602 11.6884 37.2778 11.6884 34.4608C11.6884 31.6967 12.6555 29.2494 18.4228 29.2494C24.2076 29.2494 25.1747 31.7319 25.1747 34.4608C25.1747 37.2426 24.1549 39.7602 18.4228 39.7602Z" fill="#0049AF"/>
<path d="M34.827 23.6687C36.3127 23.6687 37.5172 22.4627 37.5172 20.975C37.5172 19.4873 36.3127 18.2812 34.827 18.2812C33.3412 18.2812 32.1367 19.4873 32.1367 20.975C32.1367 22.4627 33.3412 23.6687 34.827 23.6687Z" fill="#F16D00"/>
<path d="M6.51894 19.1613V11.5555L0.698893 9.61879C0.698893 9.61879 -1.07701 8.5096 1.03297 7.52366C3.12538 6.53772 16.2249 0.727717 16.2249 0.727717L17.3502 0.234748C17.3502 0.234748 17.6667 -0.293435 18.8096 0.234748C19.9349 0.76293 35.2851 7.52366 35.2851 7.52366C35.2851 7.52366 36.5863 8.17509 35.9357 9.30188L35.7774 18.6859H33.6674V10.1118L29.4651 11.5555V19.4958C29.4651 19.4958 29.1661 20.781 27.4782 19.9183C25.1572 18.7387 12.7786 17.2246 8.52343 20.2353C8.52343 20.2353 6.04419 20.7282 6.51894 19.1613Z" fill="#F16D00"/>
</svg>
